# File created by Blade
# Date/Time:  Wed Jan 21 14:58:10 2015
# Frame Rate: 120.000 fps
#------------------------------------------------------
:FULLY-SPECIFIED
:DEGREES
408
root 16.520927 35.099508 -22.625744 -160.893617 -53.773873 -193.583127
Spine -26.440754 44.613935 -20.022413
Head 13.785897 15.475436 3.124442
LeftShoulder -10.992540 -29.915044 20.712617
LeftArm -5.847457 -1.328570 -8.025269
LeftForeArm 12.329949 -0.000000 -4.846872
LeftHand -11.027137 0.000000 -2.507783
LeftHandThumb1 -26.253704 0.000000 33.147579
RightShoulder 3.669667 2.952083 -12.071669
RightArm 47.328618 14.330846 24.975112
RightForeArm -38.446451 -0.000000 8.462269
RightHand -5.692682 -0.000000 10.193178
RightHandThumb1 -24.326973 -0.000000 -32.862282
LeftUpLeg -12.542170 -25.825354 -0.074726
LeftLeg -2.805523 -0.000000 0.000000
LeftFoot -11.527591 12.380065 -12.807775
LeftToeBase 30.435934 -0.000000 -0.000000
RightUpLeg 10.050385 -29.645867 -8.276032
RightLeg -4.203869 -0.000000 0.000000
RightFoot -32.019886 -35.036962 25.371370
RightToeBase 21.727707 -0.000000 -0.000000
409
root 16.517231 35.103890 -22.627097 -161.106430 -53.344518 -193.394053
Spine -26.354662 44.478493 -19.929624
Head 13.807901 15.249636 3.134920
LeftShoulder -10.943310 -29.888718 20.719413
LeftArm -5.638167 -1.304906 -8.111214
LeftForeArm 12.283230 -0.000000 -4.848090
LeftHand -10.972333 -0.000000 -2.367319
LeftHandThumb1 -26.253704 0.000000 33.147579
RightShoulder 3.575993 2.967429 -12.024497
RightArm 47.104834 14.404784 24.834523
RightForeArm -38.296998 0.000000 8.441129
RightHand -5.630448 -0.000000 10.184069
RightHandThumb1 -24.326973 -0.000000 -32.862282
LeftUpLeg -12.377614 -25.533879 -0.131046
LeftLeg -2.894150 -0.000000 0.000000
LeftFoot -11.574642 12.537575 -12.821677
LeftToeBase 30.355457 -0.000000 -0.000000
RightUpLeg 9.989814 -29.349464 -8.322526
RightLeg -4.158109 -0.000000 0.000000
RightFoot -31.997099 -34.932849 25.355331
RightToeBase 21.517940 -0.000000 -0.000000
410
root 16.518205 35.106899 -22.629914 -161.344611 -52.943764 -193.198708
Spine -26.197448 44.345643 -19.782373
Head 13.782091 14.971000 3.100243
LeftShoulder -10.820211 -29.821825 20.609881
LeftArm -5.439962 -1.369211 -8.098848
LeftForeArm 12.241523 -0.000000 -4.838068
LeftHand -10.963315 -0.000000 -2.413062
LeftHandThumb1 -26.253704 0.000000 33.147579
RightShoulder 3.492265 2.945831 -12.017273
RightArm 46.844501 14.571527 24.761644
RightForeArm -38.285502 -0.000000 8.497577
RightHand -5.592077 -0.000000 10.191714
RightHandThumb1 -24.326973 -0.000000 -32.862282
LeftUpLeg -12.195948 -25.285320 -0.162948
LeftLeg -2.991795 -0.000000 0.000000
LeftFoot -11.621001 12.698270 -12.805772
LeftToeBase 30.338232 -0.000000 -0.000000
RightUpLeg 9.949229 -29.007030 -8.344061
RightLeg -4.112823 -0.000000 0.000000
RightFoot -31.966103 -34.868756 25.312240
RightToeBase 21.484408 -0.000000 -0.000000
411
root 16.517231 35.109699 -22.633113 -161.591449 -52.562547 -193.019351
Spine -25.980898 44.173956 -19.585605
Head 13.777726 14.737470 3.140176
LeftShoulder -10.755380 -29.780073 20.571222
LeftArm -5.271297 -1.348697 -8.166729
LeftForeArm 12.258051 0.000000 -4.792887
LeftHand -11.010327 -0.000000 -2.356165
LeftHandThumb1 -26.253704 0.000000 33.147579
RightShoulder 3.374702 2.920922 -12.017005
RightArm 46.688377 14.724337 24.705848
RightForeArm -38.240743 0.000000 8.457073
RightHand -5.580205 -0.000000 10.211661
RightHandThumb1 -24.326973 -0.000000 -32.862282
LeftUpLeg -11.983180 -25.030524 -0.215966
LeftLeg -3.100316 -0.000000 0.000000
LeftFoot -11.666414 12.854951 -12.796289
LeftToeBase 30.306074 -0.000000 -0.000000
RightUpLeg 9.950893 -28.792855 -8.403142
RightLeg -4.074178 -0.000000 0.000000
RightFoot -31.917008 -34.653455 25.362229
RightToeBase 21.274303 -0.000000 -0.000000
412
root 16.514339 35.111961 -22.636592 -161.833489 -52.163267 -192.846379
Spine -25.790262 44.025204 -19.421003
Head 13.779363 14.487449 3.160579
LeftShoulder -10.662434 -29.889055 20.575444
LeftArm -5.152827 -1.185384 -8.235105
LeftForeArm 12.200332 -0.000000 -4.778365
LeftHand -10.915796 -0.000000 -2.512195
LeftHandThumb1 -26.253704 0.000000 33.147579
RightShoulder 3.268791 2.937997 -12.024228
RightArm 46.442516 14.814569 24.623879
RightForeArm -38.124701 -0.000000 8.450421
RightHand -5.536807 -0.000000 10.155805
RightHandThumb1 -24.326973 -0.000000 -32.862282
LeftUpLeg -11.752275 -24.748212 -0.281001
LeftLeg -3.226281 -0.000000 0.000000
LeftFoot -11.692552 12.990249 -12.762354
LeftToeBase 30.254291 -0.000000 -0.000000
RightUpLeg 9.953679 -28.473154 -8.454622
RightLeg -4.045738 -0.000000 0.000000
RightFoot -31.875102 -34.581233 25.313925
RightToeBase 21.320531 -0.000000 -0.000000
413
root 16.510803 35.115735 -22.641809 -162.064040 -51.738201 -192.669037
Spine -25.647611 43.893654 -19.297037
Head 13.772535 14.194640 3.194960
LeftShoulder -10.573241 -29.849578 20.527257
LeftArm -4.956308 -1.226398 -8.259418
LeftForeArm 12.283243 -0.000000 -4.775514
LeftHand -10.975664 -0.000000 -2.401309
LeftHandThumb1 -26.253704 0.000000 33.147579
RightShoulder 3.162425 2.951548 -12.016234
RightArm 46.189485 14.995117 24.637717
RightForeArm -38.169796 -0.000000 8.513833
RightHand -5.509550 0.000000 10.172213
RightHandThumb1 -24.326973 -0.000000 -32.862282
LeftUpLeg -11.520127 -24.445457 -0.341590
LeftLeg -3.378979 -0.000000 0.000000
LeftFoot -11.713619 13.133415 -12.775908
LeftToeBase 30.241730 -0.000000 -0.000000
RightUpLeg 9.934416 -28.218496 -8.507009
RightLeg -4.017708 -0.000000 0.000000
RightFoot -31.796868 -34.414639 25.296841
RightToeBase 21.237009 -0.000000 -0.000000
414
root 16.506023 35.118875 -22.649545 -162.286506 -51.338552 -192.515463
Spine -25.486613 43.693462 -19.164496
Head 13.781803 13.876933 3.254195
LeftShoulder -10.510488 -29.906943 20.563451
LeftArm -4.821774 -1.087232 -8.322192
LeftForeArm 12.176732 -0.000000 -4.768312
LeftHand -10.987958 0.000000 -2.449359
LeftHandThumb1 -26.253704 0.000000 33.147579
RightShoulder 3.084639 2.901818 -11.978599
RightArm 45.968631 15.202329 24.599931
RightForeArm -38.148376 -0.000000 8.520582
RightHand -5.468117 0.000000 10.191496
RightHandThumb1 -24.326973 -0.000000 -32.862282
LeftUpLeg -11.268054 -24.140189 -0.414837
LeftLeg -3.537392 -0.000000 0.000000
LeftFoot -11.716906 13.242880 -12.791569
LeftToeBase 30.141244 -0.000000 -0.000000
RightUpLeg 9.949501 -28.026491 -8.576698
RightLeg -4.006738 -0.000000 0.000000
RightFoot -31.719400 -34.272548 25.196672
RightToeBase 21.350561 -0.000000 -0.000000
415
root 16.502116 35.123514 -22.653969 -162.572232 -50.898946 -192.314412
Spine -25.294999 43.586725 -18.960225
Head 13.880195 13.613068 3.303513
LeftShoulder -10.402850 -29.924686 20.497783
LeftArm -4.658074 -1.073247 -8.343805
LeftForeArm 12.143259 -0.000000 -4.801460
LeftHand -10.896602 0.000000 -2.496027
LeftHandThumb1 -26.253704 0.000000 33.147579
RightShoulder 3.000589 2.751900 -11.953441
RightArm 45.746953 15.473339 24.499421
RightForeArm -38.044017 -0.000000 8.561111
RightHand -5.408337 -0.000000 10.211335
RightHandThumb1 -24.326973 -0.000000 -32.862282
LeftUpLeg -10.986143 -23.771055 -0.486277
LeftLeg -3.696347 -0.000000 0.000000
LeftFoot -11.721808 13.335491 -12.763162
LeftToeBase 30.191543 -0.000000 -0.000000
RightUpLeg 9.959251 -27.724408 -8.624573
RightLeg -3.973725 -0.000000 0.000000
RightFoot -31.649223 -34.129254 25.207966
RightToeBase 21.272887 -0.000000 -0.000000
416
root 16.497600 35.125040 -22.659976 -162.799355 -50.476211 -192.126913
Spine -25.159294 43.386567 -18.820734
Head 13.892746 13.371341 3.434039
LeftShoulder -10.392604 -29.996797 20.557242
LeftArm -4.514773 -0.962521 -8.391231
LeftForeArm 12.099463 -0.000000 -4.783366
LeftHand -11.019997 -0.000000 -2.503160
LeftHandThumb1 -26.253704 0.000000 33.147579
RightShoulder 2.903784 2.607981 -11.858765
RightArm 45.679612 15.616146 24.245198
RightForeArm -37.775310 -0.000000 8.367564
RightHand -5.461938 -0.000000 10.149561
RightHandThumb1 -24.326973 -0.000000 -32.862282
LeftUpLeg -10.752770 -23.434224 -0.529714
LeftLeg -3.863464 -0.000000 0.000000
LeftFoot -11.745520 13.423559 -12.724908
LeftToeBase 30.200355 -0.000000 -0.000000
RightUpLeg 9.928339 -27.467836 -8.651468
RightLeg -3.947519 -0.000000 0.000000
RightFoot -31.574705 -34.060075 25.092967
RightToeBase 21.350787 -0.000000 -0.000000
417
root 16.493759 35.127919 -22.664962 -163.008159 -50.040625 -191.944049
Spine -25.049225 43.243875 -18.709878
Head 13.885629 13.053752 3.485165
LeftShoulder -10.346625 -30.005077 20.524229
LeftArm -4.292872 -0.971224 -8.405731
LeftForeArm 12.185855 -0.000000 -4.783335
LeftHand -11.040887 -0.000000 -2.412738
LeftHandThumb1 -26.253704 0.000000 33.147579
RightShoulder 2.735852 2.733094 -11.891284
RightArm 45.381198 15.732921 24.371848
RightForeArm -37.990355 -0.000000 8.528255
RightHand -5.385428 -0.000000 10.228584
RightHandThumb1 -24.326973 -0.000000 -32.862282
LeftUpLeg -10.542238 -23.086341 -0.569984
LeftLeg -4.017548 -0.000000 0.000000
LeftFoot -11.763702 13.507715 -12.718111
LeftToeBase 30.174566 -0.000000 -0.000000
RightUpLeg 9.872306 -27.198955 -8.672944
RightLeg -3.918885 -0.000000 0.000000
RightFoot -31.484653 -33.959680 24.996554
RightToeBase 21.339595 -0.000000 -0.000000
